# xmcd
#
# Track frame offsets: 
#        150
#        13845
#        29510
#        42870
#        57445
#        67115
#        77990
#        95090
#        108422
#        116617
#        130282
#        146267
#
# Disc length: 2099 seconds
#
# Revision: 0
# Processed by: cddbd v1.5.1PL0 Copyright (c) Steve Scherf et al.
# Submitted via: ExactAudioCopy v0.90b4
#
DISCID=ad08310c
DTITLE=Graham Townsend - Country Licks and All That Jazz
DYEAR=1900
DGENRE=Country
TTITLE0=Back Forty Rip-Off
TTITLE1=Sweet Georgia Brown
TTITLE2=Sally Goodin, Cotton Eyed Joe
TTITLE3=Stay Out Of The South
TTITLE4=Jackson's Hornpipe
TTITLE5=Honeysuckle Rose
TTITLE6=Weeping Heart
TTITLE7=Lullaby Of Birdland
TTITLE8=Blackjack Whiskey
TTITLE9=I'll Be There
TTITLE10=Little Rock Get-A-Way
TTITLE11=Down Yonder
EXTD=
EXTT0=
EXTT1=
EXTT2=
EXTT3=
EXTT4=
EXTT5=
EXTT6=
EXTT7=
EXTT8=
EXTT9=
EXTT10=
EXTT11=
PLAYORDER=
